<svg width="48" height="48" viewBox="0 0 48 48" fill="none" xmlns="http://www.w3.org/2000/svg">
<path d="M16.4987 11.9991C16.4987 8.24934 19.4985 5.99951 22.4983 5.99951C24.7481 5.99951 26.9979 7.19942 27.7479 9.74922C29.2478 8.24934 31.4976 7.4994 33.7474 8.99928C35.9972 10.4992 36.7472 12.749 36.7472 14.9988C38.2471 14.9988 40.4969 15.7488 40.4969 18.7485C40.4969 20.9984 38.997 22.4982 37.4971 23.2482C38.2471 24.7481 38.2471 26.9979 36.7472 29.2477C35.2473 31.4976 32.9975 32.2475 30.7476 31.4976C30.7476 33.7474 29.2478 35.9972 26.248 35.9972C23.9982 35.9972 22.4983 34.4973 21.7483 32.9974C20.2485 34.1973 17.9986 34.4973 15.7488 32.9974C13.499 31.4976 12.749 29.2477 12.749 26.9979C11.2491 26.9979 8.99931 26.248 8.99931 23.2482C8.99931 20.9984 10.4992 19.4985 11.9991 18.7485C11.2491 17.2486 11.2491 14.9988 12.749 12.749C14.2489 10.4992 16.4987 9.74922 16.4987 11.9991Z" stroke="#2E8B6A" stroke-width="2.99977" stroke-linecap="round" stroke-linejoin="round"/>
<path d="M23.9982 40.4968C24.8265 40.4968 25.498 39.8253 25.498 38.997C25.498 38.1686 24.8265 37.4971 23.9982 37.4971C23.1698 37.4971 22.4983 38.1686 22.4983 38.997C22.4983 39.8253 23.1698 40.4968 23.9982 40.4968Z" fill="#2E8B6A"/>
<path d="M19.4985 42.4467C20.1612 42.4467 20.6984 41.9095 20.6984 41.2468C20.6984 40.5841 20.1612 40.0469 19.4985 40.0469C18.8358 40.0469 18.2986 40.5841 18.2986 41.2468C18.2986 41.9095 18.8358 42.4467 19.4985 42.4467Z" fill="#2E8B6A"/>
<path d="M28.4978 41.6968C29.1605 41.6968 29.6977 41.1596 29.6977 40.4969C29.6977 39.8342 29.1605 39.297 28.4978 39.297C27.8351 39.297 27.2979 39.8342 27.2979 40.4969C27.2979 41.1596 27.8351 41.6968 28.4978 41.6968Z" fill="#2E8B6A"/>
<path d="M23.9982 44.3965C24.4952 44.3965 24.8981 43.9936 24.8981 43.4966C24.8981 42.9996 24.4952 42.5967 23.9982 42.5967C23.5011 42.5967 23.0982 42.9996 23.0982 43.4966C23.0982 43.9936 23.5011 44.3965 23.9982 44.3965Z" fill="#2E8B6A"/>
</svg>
