<svg width="494" height="48" viewBox="0 0 494 48" fill="none" xmlns="http://www.w3.org/2000/svg">
<path d="M288.779 35.3511V14.0511H297.029C299.529 14.0511 301.479 14.6511 302.879 15.8511C304.279 17.0511 304.979 18.7111 304.979 20.8311C304.979 22.2511 304.659 23.4811 304.019 24.5211C303.379 25.5411 302.469 26.3211 301.289 26.8611C300.109 27.4011 298.689 27.6711 297.029 27.6711H292.679V35.3511H288.779ZM292.679 24.2811H296.849C298.169 24.2811 299.179 23.9911 299.879 23.4111C300.599 22.8311 300.959 21.9711 300.959 20.8311C300.959 19.7111 300.599 18.8711 299.879 18.3111C299.179 17.7311 298.169 17.4411 296.849 17.4411H292.679V24.2811ZM311.491 35.3511C310.331 35.3511 309.401 35.0511 308.701 34.4511C308.001 33.8511 307.651 32.8911 307.651 31.5711V14.0511H311.491V31.1811C311.491 31.5811 311.591 31.8811 311.791 32.0811C312.011 32.2811 312.311 32.3811 312.691 32.3811H313.861V35.3511H311.491ZM320.398 35.7111C318.718 35.7111 317.368 35.3311 316.348 34.5711C315.328 33.7911 314.818 32.7111 314.818 31.3311C314.818 29.9511 315.248 28.8711 316.108 28.0911C316.968 27.3111 318.278 26.7511 320.038 26.4111L325.348 25.3611C325.348 24.2211 325.088 23.3711 324.568 22.8111C324.048 22.2311 323.278 21.9411 322.258 21.9411C321.338 21.9411 320.608 22.1611 320.068 22.6011C319.548 23.0211 319.188 23.6311 318.988 24.4311L315.088 24.2511C315.408 22.5511 316.188 21.2511 317.428 20.3511C318.668 19.4311 320.278 18.9711 322.258 18.9711C324.538 18.9711 326.258 19.5511 327.418 20.7111C328.598 21.8511 329.188 23.4911 329.188 25.6311V31.4511C329.188 31.8711 329.258 32.1611 329.398 32.3211C329.558 32.4811 329.788 32.5611 330.088 32.5611H330.598V35.3511C330.478 35.3911 330.278 35.4211 329.998 35.4411C329.738 35.4611 329.468 35.4711 329.188 35.4711C328.528 35.4711 327.938 35.3711 327.418 35.1711C326.898 34.9511 326.498 34.5811 326.218 34.0611C325.938 33.5211 325.798 32.7911 325.798 31.8711L326.128 32.1111C325.968 32.8111 325.618 33.4411 325.078 34.0011C324.558 34.5411 323.898 34.9611 323.098 35.2611C322.298 35.5611 321.398 35.7111 320.398 35.7111ZM321.178 32.9211C322.038 32.9211 322.778 32.7511 323.398 32.4111C324.018 32.0711 324.498 31.6011 324.838 31.0011C325.178 30.4011 325.348 29.6911 325.348 28.8711V27.9711L321.208 28.8111C320.348 28.9911 319.728 29.2611 319.348 29.6211C318.988 29.9611 318.808 30.4111 318.808 30.9711C318.808 31.5911 319.008 32.0711 319.408 32.4111C319.828 32.7511 320.418 32.9211 321.178 32.9211ZM332.342 35.3511V19.3311H335.822L335.972 23.8311L335.522 23.6511C335.682 22.5311 336.012 21.6311 336.512 20.9511C337.012 20.2711 337.622 19.7711 338.342 19.4511C339.062 19.1311 339.852 18.9711 340.712 18.9711C341.892 18.9711 342.882 19.2311 343.682 19.7511C344.502 20.2711 345.122 20.9911 345.542 21.9111C345.962 22.8111 346.172 23.8611 346.172 25.0611V35.3511H342.332V26.2911C342.332 25.3911 342.242 24.6311 342.062 24.0111C341.882 23.3911 341.582 22.9211 341.162 22.6011C340.762 22.2611 340.222 22.0911 339.542 22.0911C338.522 22.0911 337.702 22.4511 337.082 23.1711C336.482 23.8911 336.182 24.9311 336.182 26.2911V35.3511H332.342ZM355.739 35.7111C354.159 35.7111 352.829 35.4811 351.749 35.0211C350.689 34.5611 349.869 33.9211 349.289 33.1011C348.709 32.2811 348.379 31.3511 348.299 30.3111L352.229 30.1311C352.369 30.9711 352.719 31.6211 353.279 32.0811C353.839 32.5411 354.669 32.7711 355.769 32.7711C356.669 32.7711 357.369 32.6311 357.869 32.3511C358.389 32.0511 358.649 31.5911 358.649 30.9711C358.649 30.6111 358.559 30.3111 358.379 30.0711C358.199 29.8311 357.859 29.6211 357.359 29.4411C356.859 29.2611 356.119 29.0811 355.139 28.9011C353.499 28.6211 352.209 28.2811 351.269 27.8811C350.329 27.4611 349.659 26.9411 349.259 26.3211C348.879 25.7011 348.689 24.9311 348.689 24.0111C348.689 22.5111 349.259 21.3011 350.399 20.3811C351.559 19.4411 353.249 18.9711 355.469 18.9711C356.909 18.9711 358.119 19.2111 359.099 19.6911C360.079 20.1511 360.839 20.7911 361.379 21.6111C361.939 22.4111 362.289 23.3311 362.429 24.3711L358.559 24.5511C358.459 24.0111 358.279 23.5411 358.019 23.1411C357.759 22.7411 357.409 22.4411 356.969 22.2411C356.529 22.0211 356.009 21.9111 355.409 21.9111C354.509 21.9111 353.829 22.0911 353.369 22.4511C352.909 22.8111 352.679 23.2911 352.679 23.8911C352.679 24.3111 352.779 24.6611 352.979 24.9411C353.199 25.2211 353.549 25.4511 354.029 25.6311C354.509 25.7911 355.149 25.9411 355.949 26.0811C357.629 26.3411 358.949 26.6811 359.909 27.1011C360.889 27.5011 361.579 28.0211 361.979 28.6611C362.399 29.2811 362.609 30.0311 362.609 30.9111C362.609 31.9311 362.319 32.8011 361.739 33.5211C361.179 34.2411 360.379 34.7911 359.339 35.1711C358.319 35.5311 357.119 35.7111 355.739 35.7111ZM371.816 35.7111C370.216 35.7111 368.826 35.3711 367.646 34.6911C366.466 33.9911 365.546 33.0111 364.886 31.7511C364.246 30.4911 363.926 29.0211 363.926 27.3411C363.926 25.6611 364.246 24.2011 364.886 22.9611C365.546 21.7011 366.466 20.7211 367.646 20.0211C368.826 19.3211 370.216 18.9711 371.816 18.9711C373.176 18.9711 374.386 19.2111 375.446 19.6911C376.506 20.1711 377.366 20.8611 378.026 21.7611C378.706 22.6411 379.126 23.7211 379.286 25.0011L375.326 25.2111C375.166 24.1911 374.766 23.4211 374.126 22.9011C373.506 22.3611 372.736 22.0911 371.816 22.0911C370.576 22.0911 369.616 22.5611 368.936 23.5011C368.256 24.4211 367.916 25.7011 367.916 27.3411C367.916 29.0011 368.256 30.2911 368.936 31.2111C369.616 32.1311 370.576 32.5911 371.816 32.5911C372.756 32.5911 373.536 32.3211 374.156 31.7811C374.796 31.2411 375.186 30.4011 375.326 29.2611L379.286 29.4411C379.126 30.7211 378.716 31.8311 378.056 32.7711C377.396 33.7111 376.536 34.4411 375.476 34.9611C374.416 35.4611 373.196 35.7111 371.816 35.7111ZM388.175 35.7111C386.595 35.7111 385.205 35.3711 384.005 34.6911C382.825 33.9911 381.905 33.0111 381.245 31.7511C380.605 30.4911 380.285 29.0211 380.285 27.3411C380.285 25.6411 380.605 24.1711 381.245 22.9311C381.905 21.6711 382.825 20.7011 384.005 20.0211C385.205 19.3211 386.595 18.9711 388.175 18.9711C389.755 18.9711 391.135 19.3211 392.315 20.0211C393.495 20.7011 394.405 21.6711 395.045 22.9311C395.705 24.1711 396.035 25.6411 396.035 27.3411C396.035 29.0211 395.705 30.4911 395.045 31.7511C394.405 33.0111 393.495 33.9911 392.315 34.6911C391.135 35.3711 389.755 35.7111 388.175 35.7111ZM388.175 32.5911C389.415 32.5911 390.365 32.1311 391.025 31.2111C391.705 30.2911 392.045 29.0011 392.045 27.3411C392.045 25.7011 391.705 24.4211 391.025 23.5011C390.365 22.5611 389.415 22.0911 388.175 22.0911C386.935 22.0911 385.975 22.5611 385.295 23.5011C384.615 24.4211 384.275 25.7011 384.275 27.3411C384.275 29.0011 384.615 30.2911 385.295 31.2111C385.975 32.1311 386.935 32.5911 388.175 32.5911ZM398.248 39.8511V19.3311H401.938L402.028 22.7511L401.638 22.5711C402.038 21.3911 402.688 20.5011 403.588 19.9011C404.508 19.2811 405.578 18.9711 406.798 18.9711C408.318 18.9711 409.578 19.3511 410.578 20.1111C411.598 20.8711 412.358 21.8811 412.858 23.1411C413.358 24.4011 413.608 25.8011 413.608 27.3411C413.608 28.8811 413.348 30.2811 412.828 31.5411C412.328 32.8011 411.568 33.8111 410.548 34.5711C409.548 35.3311 408.288 35.7111 406.768 35.7111C405.968 35.7111 405.218 35.5711 404.518 35.2911C403.838 35.0111 403.248 34.6111 402.748 34.0911C402.268 33.5711 401.928 32.9611 401.728 32.2611L402.088 31.9611V39.8511H398.248ZM405.868 32.5911C407.028 32.5911 407.938 32.1311 408.598 31.2111C409.278 30.2711 409.618 28.9811 409.618 27.3411C409.618 25.7011 409.278 24.4211 408.598 23.5011C407.938 22.5611 407.028 22.0911 405.868 22.0911C405.088 22.0911 404.418 22.2911 403.858 22.6911C403.298 23.0711 402.858 23.6511 402.538 24.4311C402.238 25.2111 402.088 26.1811 402.088 27.3411C402.088 28.5011 402.238 29.4711 402.538 30.2511C402.838 31.0311 403.268 31.6211 403.828 32.0211C404.408 32.4011 405.088 32.5911 405.868 32.5911ZM422.768 35.7111C421.168 35.7111 419.778 35.3711 418.598 34.6911C417.418 33.9911 416.508 33.0111 415.868 31.7511C415.228 30.4911 414.908 29.0211 414.908 27.3411C414.908 25.6611 415.228 24.2011 415.868 22.9611C416.508 21.7011 417.408 20.7211 418.568 20.0211C419.748 19.3211 421.118 18.9711 422.678 18.9711C424.198 18.9711 425.528 19.3111 426.668 19.9911C427.828 20.6711 428.718 21.6511 429.338 22.9311C429.958 24.2111 430.268 25.7511 430.268 27.5511V28.4211H418.898C418.978 29.8211 419.358 30.8811 420.038 31.6011C420.738 32.3011 421.658 32.6511 422.798 32.6511C423.658 32.6511 424.368 32.4611 424.928 32.0811C425.508 31.6811 425.908 31.1311 426.128 30.4311L430.058 30.6711C429.618 32.2311 428.748 33.4611 427.448 34.3611C426.168 35.2611 424.608 35.7111 422.768 35.7111ZM418.898 25.8411H426.308C426.228 24.5411 425.858 23.5811 425.198 22.9611C424.538 22.3211 423.698 22.0011 422.678 22.0011C421.658 22.0011 420.808 22.3311 420.128 22.9911C419.468 23.6511 419.058 24.6011 418.898 25.8411Z" fill="black"/>
<mask id="path-2-inside-1_15_720" fill="white">
<path d="M445.68 23.9982C445.68 10.7443 456.424 0 469.678 0C482.932 0 493.676 10.7443 493.676 23.9982C493.676 37.252 482.932 47.9963 469.678 47.9963C456.424 47.9963 445.68 37.252 445.68 23.9982Z"/>
</mask>
<path d="M445.68 23.9982C445.68 10.7443 456.424 0 469.678 0C482.932 0 493.676 10.7443 493.676 23.9982C493.676 37.252 482.932 47.9963 469.678 47.9963C456.424 47.9963 445.68 37.252 445.68 23.9982Z" fill="white"/>
<path d="M445.68 23.9982M493.676 23.9982M493.676 23.9982M445.68 23.9982M469.678 0M493.676 23.9982M469.678 47.9963M445.68 23.9982M469.678 47.9963V46.8198C457.074 46.8198 446.857 36.6022 446.857 23.9982H445.68H444.504C444.504 37.9017 455.775 49.1728 469.678 49.1728V47.9963ZM493.676 23.9982H492.5C492.5 36.6022 482.282 46.8198 469.678 46.8198V47.9963V49.1728C483.582 49.1728 494.853 37.9017 494.853 23.9982H493.676ZM469.678 0V1.17647C482.282 1.17647 492.5 11.3941 492.5 23.9982H493.676H494.853C494.853 10.0946 483.582 -1.17647 469.678 -1.17647V0ZM469.678 0V-1.17647C455.775 -1.17647 444.504 10.0946 444.504 23.9982H445.68H446.857C446.857 11.3941 457.074 1.17647 469.678 1.17647V0Z" fill="#2E8B6A" mask="url(#path-2-inside-1_15_720)"/>
<path d="M464.201 26.2802L469.678 33.1267M469.678 33.1267L475.156 26.2802M469.678 33.1267V14.8694" stroke="#2E8B6A" stroke-width="0.912868" stroke-linecap="round" stroke-linejoin="round"/>
<g opacity="0.75">
<path d="M466.027 24.9111L469.678 29.4754M469.678 29.4754L473.33 24.9111M469.678 29.4754V18.521" stroke="#2E8B6A" stroke-width="0.912868" stroke-linecap="round" stroke-linejoin="round"/>
</g>
<g opacity="0.5">
<path d="M467.396 23.9982L469.678 26.2804M469.678 26.2804L471.961 23.9982M469.678 26.2804V21.7161" stroke="#2E8B6A" stroke-width="0.912868" stroke-linecap="round" stroke-linejoin="round"/>
</g>
</svg>
