<svg width="494" height="56" viewBox="0 0 494 56" fill="none" xmlns="http://www.w3.org/2000/svg">
<path d="M21.2772 30.796L27.9963 39.1949M27.9963 39.1949L34.7155 30.796M27.9963 39.1949V16.7979" stroke="#2E8B6A" stroke-width="1.11985" stroke-linecap="round" stroke-linejoin="round"/>
<g opacity="0.75">
<path d="M23.5169 29.1161L27.9963 34.7153M27.9963 34.7153L32.4757 29.1161M27.9963 34.7153V21.2771" stroke="#2E8B6A" stroke-width="1.11985" stroke-linecap="round" stroke-linejoin="round"/>
</g>
<g opacity="0.5">
<path d="M25.1967 27.9964L27.9963 30.796M27.9963 30.796L30.796 27.9964M27.9963 30.796V25.1968" stroke="#2E8B6A" stroke-width="1.11985" stroke-linecap="round" stroke-linejoin="round"/>
</g>
<path d="M74.3853 29.9375V8.6375H82.6353C85.1353 8.6375 87.0853 9.2375 88.4853 10.4375C89.8853 11.6375 90.5853 13.2975 90.5853 15.4175C90.5853 16.8375 90.2653 18.0675 89.6253 19.1075C88.9853 20.1275 88.0753 20.9075 86.8953 21.4475C85.7153 21.9875 84.2953 22.2575 82.6353 22.2575H78.2853V29.9375H74.3853ZM78.2853 18.8675H82.4553C83.7753 18.8675 84.7853 18.5775 85.4853 17.9975C86.2053 17.4175 86.5653 16.5575 86.5653 15.4175C86.5653 14.2975 86.2053 13.4575 85.4853 12.8975C84.7853 12.3175 83.7753 12.0275 82.4553 12.0275H78.2853V18.8675ZM97.0972 29.9375C95.9372 29.9375 95.0072 29.6375 94.3072 29.0375C93.6072 28.4375 93.2572 27.4775 93.2572 26.1575V8.6375H97.0972V25.7675C97.0972 26.1675 97.1972 26.4675 97.3972 26.6675C97.6172 26.8675 97.9172 26.9675 98.2972 26.9675H99.4672V29.9375H97.0972ZM106.005 30.2975C104.325 30.2975 102.975 29.9175 101.955 29.1575C100.935 28.3775 100.425 27.2975 100.425 25.9175C100.425 24.5375 100.855 23.4575 101.715 22.6775C102.575 21.8975 103.885 21.3375 105.645 20.9975L110.955 19.9475C110.955 18.8075 110.695 17.9575 110.175 17.3975C109.655 16.8175 108.885 16.5275 107.865 16.5275C106.945 16.5275 106.215 16.7475 105.675 17.1875C105.155 17.6075 104.795 18.2175 104.595 19.0175L100.695 18.8375C101.015 17.1375 101.795 15.8375 103.035 14.9375C104.275 14.0175 105.885 13.5575 107.865 13.5575C110.145 13.5575 111.865 14.1375 113.025 15.2975C114.205 16.4375 114.795 18.0775 114.795 20.2175V26.0375C114.795 26.4575 114.865 26.7475 115.005 26.9075C115.165 27.0675 115.395 27.1475 115.695 27.1475H116.205V29.9375C116.085 29.9775 115.885 30.0075 115.605 30.0275C115.345 30.0475 115.075 30.0575 114.795 30.0575C114.135 30.0575 113.545 29.9575 113.025 29.7575C112.505 29.5375 112.105 29.1675 111.825 28.6475C111.545 28.1075 111.405 27.3775 111.405 26.4575L111.735 26.6975C111.575 27.3975 111.225 28.0275 110.685 28.5875C110.165 29.1275 109.505 29.5475 108.705 29.8475C107.905 30.1475 107.005 30.2975 106.005 30.2975ZM106.785 27.5075C107.645 27.5075 108.385 27.3375 109.005 26.9975C109.625 26.6575 110.105 26.1875 110.445 25.5875C110.785 24.9875 110.955 24.2775 110.955 23.4575V22.5575L106.815 23.3975C105.955 23.5775 105.335 23.8475 104.955 24.2075C104.595 24.5475 104.415 24.9975 104.415 25.5575C104.415 26.1775 104.615 26.6575 105.015 26.9975C105.435 27.3375 106.025 27.5075 106.785 27.5075ZM117.949 29.9375V13.9175H121.429L121.579 18.4175L121.129 18.2375C121.289 17.1175 121.619 16.2175 122.119 15.5375C122.619 14.8575 123.229 14.3575 123.949 14.0375C124.669 13.7175 125.459 13.5575 126.319 13.5575C127.499 13.5575 128.489 13.8175 129.289 14.3375C130.109 14.8575 130.729 15.5775 131.149 16.4975C131.569 17.3975 131.779 18.4475 131.779 19.6475V29.9375H127.939V20.8775C127.939 19.9775 127.849 19.2175 127.669 18.5975C127.489 17.9775 127.189 17.5075 126.769 17.1875C126.369 16.8475 125.829 16.6775 125.149 16.6775C124.129 16.6775 123.309 17.0375 122.689 17.7575C122.089 18.4775 121.789 19.5175 121.789 20.8775V29.9375H117.949ZM141.345 30.2975C139.765 30.2975 138.435 30.0675 137.355 29.6075C136.295 29.1475 135.475 28.5075 134.895 27.6875C134.315 26.8675 133.985 25.9375 133.905 24.8975L137.835 24.7175C137.975 25.5575 138.325 26.2075 138.885 26.6675C139.445 27.1275 140.275 27.3575 141.375 27.3575C142.275 27.3575 142.975 27.2175 143.475 26.9375C143.995 26.6375 144.255 26.1775 144.255 25.5575C144.255 25.1975 144.165 24.8975 143.985 24.6575C143.805 24.4175 143.465 24.2075 142.965 24.0275C142.465 23.8475 141.725 23.6675 140.745 23.4875C139.105 23.2075 137.815 22.8675 136.875 22.4675C135.935 22.0475 135.265 21.5275 134.865 20.9075C134.485 20.2875 134.295 19.5175 134.295 18.5975C134.295 17.0975 134.865 15.8875 136.005 14.9675C137.165 14.0275 138.855 13.5575 141.075 13.5575C142.515 13.5575 143.725 13.7975 144.705 14.2775C145.685 14.7375 146.445 15.3775 146.985 16.1975C147.545 16.9975 147.895 17.9175 148.035 18.9575L144.165 19.1375C144.065 18.5975 143.885 18.1275 143.625 17.7275C143.365 17.3275 143.015 17.0275 142.575 16.8275C142.135 16.6075 141.615 16.4975 141.015 16.4975C140.115 16.4975 139.435 16.6775 138.975 17.0375C138.515 17.3975 138.285 17.8775 138.285 18.4775C138.285 18.8975 138.385 19.2475 138.585 19.5275C138.805 19.8075 139.155 20.0375 139.635 20.2175C140.115 20.3775 140.755 20.5275 141.555 20.6675C143.235 20.9275 144.555 21.2675 145.515 21.6875C146.495 22.0875 147.185 22.6075 147.585 23.2475C148.005 23.8675 148.215 24.6175 148.215 25.4975C148.215 26.5175 147.925 27.3875 147.345 28.1075C146.785 28.8275 145.985 29.3775 144.945 29.7575C143.925 30.1175 142.725 30.2975 141.345 30.2975ZM157.422 30.2975C155.822 30.2975 154.432 29.9575 153.252 29.2775C152.072 28.5775 151.152 27.5975 150.492 26.3375C149.852 25.0775 149.532 23.6075 149.532 21.9275C149.532 20.2475 149.852 18.7875 150.492 17.5475C151.152 16.2875 152.072 15.3075 153.252 14.6075C154.432 13.9075 155.822 13.5575 157.422 13.5575C158.782 13.5575 159.992 13.7975 161.052 14.2775C162.112 14.7575 162.972 15.4475 163.632 16.3475C164.312 17.2275 164.732 18.3075 164.892 19.5875L160.932 19.7975C160.772 18.7775 160.372 18.0075 159.732 17.4875C159.112 16.9475 158.342 16.6775 157.422 16.6775C156.182 16.6775 155.222 17.1475 154.542 18.0875C153.862 19.0075 153.522 20.2875 153.522 21.9275C153.522 23.5875 153.862 24.8775 154.542 25.7975C155.222 26.7175 156.182 27.1775 157.422 27.1775C158.362 27.1775 159.142 26.9075 159.762 26.3675C160.402 25.8275 160.792 24.9875 160.932 23.8475L164.892 24.0275C164.732 25.3075 164.322 26.4175 163.662 27.3575C163.002 28.2975 162.142 29.0275 161.082 29.5475C160.022 30.0475 158.802 30.2975 157.422 30.2975ZM173.782 30.2975C172.202 30.2975 170.812 29.9575 169.612 29.2775C168.432 28.5775 167.512 27.5975 166.852 26.3375C166.212 25.0775 165.892 23.6075 165.892 21.9275C165.892 20.2275 166.212 18.7575 166.852 17.5175C167.512 16.2575 168.432 15.2875 169.612 14.6075C170.812 13.9075 172.202 13.5575 173.782 13.5575C175.362 13.5575 176.742 13.9075 177.922 14.6075C179.102 15.2875 180.012 16.2575 180.652 17.5175C181.312 18.7575 181.642 20.2275 181.642 21.9275C181.642 23.6075 181.312 25.0775 180.652 26.3375C180.012 27.5975 179.102 28.5775 177.922 29.2775C176.742 29.9575 175.362 30.2975 173.782 30.2975ZM173.782 27.1775C175.022 27.1775 175.972 26.7175 176.632 25.7975C177.312 24.8775 177.652 23.5875 177.652 21.9275C177.652 20.2875 177.312 19.0075 176.632 18.0875C175.972 17.1475 175.022 16.6775 173.782 16.6775C172.542 16.6775 171.582 17.1475 170.902 18.0875C170.222 19.0075 169.882 20.2875 169.882 21.9275C169.882 23.5875 170.222 24.8775 170.902 25.7975C171.582 26.7175 172.542 27.1775 173.782 27.1775ZM183.855 34.4375V13.9175H187.545L187.635 17.3375L187.245 17.1575C187.645 15.9775 188.295 15.0875 189.195 14.4875C190.115 13.8675 191.185 13.5575 192.405 13.5575C193.925 13.5575 195.185 13.9375 196.185 14.6975C197.205 15.4575 197.965 16.4675 198.465 17.7275C198.965 18.9875 199.215 20.3875 199.215 21.9275C199.215 23.4675 198.955 24.8675 198.435 26.1275C197.935 27.3875 197.175 28.3975 196.155 29.1575C195.155 29.9175 193.895 30.2975 192.375 30.2975C191.575 30.2975 190.825 30.1575 190.125 29.8775C189.445 29.5975 188.855 29.1975 188.355 28.6775C187.875 28.1575 187.535 27.5475 187.335 26.8475L187.695 26.5475V34.4375H183.855ZM191.475 27.1775C192.635 27.1775 193.545 26.7175 194.205 25.7975C194.885 24.8575 195.225 23.5675 195.225 21.9275C195.225 20.2875 194.885 19.0075 194.205 18.0875C193.545 17.1475 192.635 16.6775 191.475 16.6775C190.695 16.6775 190.025 16.8775 189.465 17.2775C188.905 17.6575 188.465 18.2375 188.145 19.0175C187.845 19.7975 187.695 20.7675 187.695 21.9275C187.695 23.0875 187.845 24.0575 188.145 24.8375C188.445 25.6175 188.875 26.2075 189.435 26.6075C190.015 26.9875 190.695 27.1775 191.475 27.1775ZM208.375 30.2975C206.775 30.2975 205.385 29.9575 204.205 29.2775C203.025 28.5775 202.115 27.5975 201.475 26.3375C200.835 25.0775 200.515 23.6075 200.515 21.9275C200.515 20.2475 200.835 18.7875 201.475 17.5475C202.115 16.2875 203.015 15.3075 204.175 14.6075C205.355 13.9075 206.725 13.5575 208.285 13.5575C209.805 13.5575 211.135 13.8975 212.275 14.5775C213.435 15.2575 214.325 16.2375 214.945 17.5175C215.565 18.7975 215.875 20.3375 215.875 22.1375V23.0075H204.505C204.585 24.4075 204.965 25.4675 205.645 26.1875C206.345 26.8875 207.265 27.2375 208.405 27.2375C209.265 27.2375 209.975 27.0475 210.535 26.6675C211.115 26.2675 211.515 25.7175 211.735 25.0175L215.665 25.2575C215.225 26.8175 214.355 28.0475 213.055 28.9475C211.775 29.8475 210.215 30.2975 208.375 30.2975ZM204.505 20.4275H211.915C211.835 19.1275 211.465 18.1675 210.805 17.5475C210.145 16.9075 209.305 16.5875 208.285 16.5875C207.265 16.5875 206.415 16.9175 205.735 17.5775C205.075 18.2375 204.665 19.1875 204.505 20.4275Z" fill="#2E8B6A"/>
<g opacity="0.7">
<path d="M73.2733 51.408V41.468H76.8433C77.954 41.468 78.8173 41.734 79.4333 42.266C80.0493 42.798 80.3573 43.5353 80.3573 44.478C80.3573 45.1126 80.2173 45.6633 79.9373 46.13C79.6573 46.5873 79.256 46.9373 78.7333 47.18C78.2106 47.4226 77.5806 47.544 76.8433 47.544H74.4773V51.408H73.2733ZM74.4773 46.368H76.8433C77.59 46.368 78.15 46.2093 78.5233 45.892C78.906 45.5746 79.0973 45.1033 79.0973 44.478C79.0973 43.8713 78.906 43.414 78.5233 43.106C78.15 42.798 77.59 42.644 76.8433 42.644H74.4773V46.368ZM84.0168 51.408C83.5874 51.408 83.2374 51.296 82.9668 51.072C82.6961 50.848 82.5608 50.4933 82.5608 50.008V41.468H83.7368V49.91C83.7368 50.0593 83.7741 50.176 83.8488 50.26C83.9328 50.3346 84.0494 50.372 84.1988 50.372H84.8428V51.408H84.0168ZM88.6452 51.576C87.8798 51.576 87.2685 51.3986 86.8112 51.044C86.3632 50.6893 86.1392 50.1946 86.1392 49.56C86.1392 48.9253 86.3258 48.426 86.6992 48.062C87.0725 47.698 87.6652 47.4413 88.4772 47.292L91.1092 46.802C91.1092 46.1766 90.9598 45.71 90.6612 45.402C90.3718 45.094 89.9332 44.94 89.3452 44.94C88.8318 44.94 88.4258 45.0566 88.1272 45.29C87.8285 45.514 87.6232 45.8406 87.5112 46.27L86.2652 46.172C86.4052 45.472 86.7412 44.9073 87.2732 44.478C87.8145 44.0393 88.5052 43.82 89.3452 43.82C90.2972 43.82 91.0252 44.0906 91.5292 44.632C92.0332 45.164 92.2852 45.9013 92.2852 46.844V49.91C92.2852 50.078 92.3132 50.1993 92.3692 50.274C92.4345 50.3393 92.5372 50.372 92.6772 50.372H92.9712V51.408C92.9338 51.4173 92.8732 51.422 92.7892 51.422C92.7052 51.4313 92.6165 51.436 92.5232 51.436C92.1872 51.436 91.9118 51.3846 91.6972 51.282C91.4918 51.17 91.3425 51.002 91.2492 50.778C91.1558 50.5446 91.1092 50.2413 91.1092 49.868L91.2492 49.896C91.1838 50.2133 91.0252 50.5026 90.7732 50.764C90.5212 51.016 90.2085 51.2166 89.8352 51.366C89.4618 51.506 89.0652 51.576 88.6452 51.576ZM88.7572 50.54C89.2518 50.54 89.6718 50.4466 90.0172 50.26C90.3718 50.064 90.6425 49.8026 90.8292 49.476C91.0158 49.14 91.1092 48.7666 91.1092 48.356V47.824L88.7012 48.272C88.1972 48.3653 87.8472 48.51 87.6512 48.706C87.4645 48.8926 87.3712 49.14 87.3712 49.448C87.3712 49.7933 87.4925 50.064 87.7352 50.26C87.9872 50.4466 88.3278 50.54 88.7572 50.54ZM94.6494 51.408V43.988H95.7274L95.7694 45.878L95.6294 45.752C95.7228 45.3133 95.8861 44.954 96.1194 44.674C96.3528 44.3846 96.6328 44.17 96.9594 44.03C97.2954 43.89 97.6548 43.82 98.0374 43.82C98.6068 43.82 99.0734 43.946 99.4374 44.198C99.8108 44.45 100.086 44.7906 100.263 45.22C100.45 45.64 100.543 46.1113 100.543 46.634V51.408H99.3674V46.97C99.3674 46.5126 99.3114 46.13 99.1994 45.822C99.0968 45.5046 98.9288 45.2666 98.6954 45.108C98.4621 44.94 98.1588 44.856 97.7854 44.856C97.2161 44.856 96.7448 45.038 96.3714 45.402C96.0074 45.7566 95.8254 46.2793 95.8254 46.97V51.408H94.6494ZM102.861 51.408V43.988H103.939L103.981 45.878L103.841 45.752C103.934 45.3133 104.097 44.954 104.331 44.674C104.564 44.3846 104.844 44.17 105.171 44.03C105.507 43.89 105.866 43.82 106.249 43.82C106.818 43.82 107.285 43.946 107.649 44.198C108.022 44.45 108.297 44.7906 108.475 45.22C108.661 45.64 108.755 46.1113 108.755 46.634V51.408H107.579V46.97C107.579 46.5126 107.523 46.13 107.411 45.822C107.308 45.5046 107.14 45.2666 106.907 45.108C106.673 44.94 106.37 44.856 105.997 44.856C105.427 44.856 104.956 45.038 104.583 45.402C104.219 45.7566 104.037 46.2793 104.037 46.97V51.408H102.861ZM111.209 51.408V43.988H112.385V51.408H111.209ZM111.181 42.826V41.454H112.413V42.826H111.181ZM115.113 51.408V43.988H116.191L116.233 45.878L116.093 45.752C116.187 45.3133 116.35 44.954 116.583 44.674C116.817 44.3846 117.097 44.17 117.423 44.03C117.759 43.89 118.119 43.82 118.501 43.82C119.071 43.82 119.537 43.946 119.901 44.198C120.275 44.45 120.55 44.7906 120.727 45.22C120.914 45.64 121.007 46.1113 121.007 46.634V51.408H119.831V46.97C119.831 46.5126 119.775 46.13 119.663 45.822C119.561 45.5046 119.393 45.2666 119.159 45.108C118.926 44.94 118.623 44.856 118.249 44.856C117.68 44.856 117.209 45.038 116.835 45.402C116.471 45.7566 116.289 46.2793 116.289 46.97V51.408H115.113ZM126.248 53.676C125.716 53.676 125.236 53.5873 124.806 53.41C124.377 53.2326 124.018 52.9806 123.728 52.654C123.439 52.3273 123.243 51.9493 123.14 51.52L124.372 51.436C124.484 51.7813 124.68 52.052 124.96 52.248C125.25 52.4533 125.679 52.556 126.248 52.556C126.92 52.556 127.434 52.4206 127.788 52.15C128.152 51.8793 128.334 51.4733 128.334 50.932V49.728C128.157 50.12 127.872 50.4326 127.48 50.666C127.088 50.8993 126.65 51.016 126.164 51.016C125.539 51.016 124.979 50.862 124.484 50.554C123.999 50.246 123.616 49.8213 123.336 49.28C123.066 48.7386 122.93 48.118 122.93 47.418C122.93 46.7086 123.066 46.088 123.336 45.556C123.607 45.0146 123.98 44.59 124.456 44.282C124.942 43.974 125.492 43.82 126.108 43.82C126.631 43.82 127.098 43.9413 127.508 44.184C127.928 44.4266 128.222 44.7533 128.39 45.164V43.988H129.51V50.904C129.51 51.4826 129.38 51.9773 129.118 52.388C128.857 52.808 128.484 53.1253 127.998 53.34C127.513 53.564 126.93 53.676 126.248 53.676ZM126.22 49.896C126.855 49.896 127.364 49.6766 127.746 49.238C128.129 48.79 128.325 48.1833 128.334 47.418C128.344 46.9046 128.26 46.466 128.082 46.102C127.914 45.7286 127.667 45.444 127.34 45.248C127.023 45.0426 126.65 44.94 126.22 44.94C125.567 44.94 125.058 45.164 124.694 45.612C124.34 46.0506 124.162 46.6526 124.162 47.418C124.162 48.1833 124.344 48.79 124.708 49.238C125.082 49.6766 125.586 49.896 126.22 49.896ZM139.531 51.632C138.765 51.632 138.098 51.4873 137.529 51.198C136.959 50.9086 136.507 50.512 136.171 50.008C135.844 49.4946 135.653 48.902 135.597 48.23L136.857 48.146C136.922 48.6406 137.067 49.0606 137.291 49.406C137.515 49.7513 137.813 50.0126 138.187 50.19C138.569 50.3673 139.027 50.456 139.559 50.456C140.025 50.456 140.422 50.3953 140.749 50.274C141.075 50.1526 141.323 49.9753 141.491 49.742C141.668 49.5086 141.757 49.224 141.757 48.888C141.757 48.58 141.682 48.3093 141.533 48.076C141.393 47.8333 141.117 47.614 140.707 47.418C140.305 47.2126 139.708 47.012 138.915 46.816C138.149 46.62 137.538 46.4053 137.081 46.172C136.633 45.9386 136.306 45.654 136.101 45.318C135.905 44.982 135.807 44.5666 135.807 44.072C135.807 43.512 135.937 43.022 136.199 42.602C136.469 42.1726 136.852 41.8413 137.347 41.608C137.841 41.3653 138.429 41.244 139.111 41.244C139.839 41.244 140.464 41.384 140.987 41.664C141.509 41.9346 141.925 42.308 142.233 42.784C142.541 43.26 142.732 43.8013 142.807 44.408L141.547 44.492C141.491 44.0906 141.36 43.736 141.155 43.428C140.959 43.1106 140.688 42.8633 140.343 42.686C139.997 42.5086 139.577 42.42 139.083 42.42C138.467 42.42 137.977 42.5693 137.613 42.868C137.249 43.1573 137.067 43.54 137.067 44.016C137.067 44.324 137.137 44.5806 137.277 44.786C137.426 44.982 137.687 45.1593 138.061 45.318C138.434 45.4673 138.971 45.6306 139.671 45.808C140.501 46.0133 141.159 46.2606 141.645 46.55C142.139 46.83 142.489 47.1566 142.695 47.53C142.909 47.9033 143.017 48.328 143.017 48.804C143.017 49.3826 142.867 49.8866 142.569 50.316C142.27 50.736 141.859 51.0626 141.337 51.296C140.814 51.52 140.212 51.632 139.531 51.632ZM145.06 51.408V43.988H146.236V51.408H145.06ZM145.032 42.826V41.454H146.264V42.826H145.032ZM148.965 51.408V43.988H150.043L150.085 45.864L149.917 45.808C150.001 45.3973 150.146 45.0473 150.351 44.758C150.566 44.4593 150.827 44.2306 151.135 44.072C151.443 43.904 151.784 43.82 152.157 43.82C152.801 43.82 153.324 43.9973 153.725 44.352C154.136 44.7066 154.392 45.2013 154.495 45.836L154.271 45.822C154.346 45.3926 154.481 45.0333 154.677 44.744C154.882 44.4453 155.144 44.2166 155.461 44.058C155.778 43.8993 156.142 43.82 156.553 43.82C157.085 43.82 157.533 43.932 157.897 44.156C158.261 44.3706 158.536 44.688 158.723 45.108C158.91 45.528 159.003 46.0366 159.003 46.634V51.408H157.827V46.886C157.827 46.214 157.696 45.71 157.435 45.374C157.174 45.0286 156.786 44.856 156.273 44.856C155.928 44.856 155.624 44.94 155.363 45.108C155.111 45.276 154.915 45.5186 154.775 45.836C154.635 46.144 154.565 46.522 154.565 46.97V51.408H153.389V46.97C153.389 46.3073 153.272 45.7893 153.039 45.416C152.806 45.0426 152.414 44.856 151.863 44.856C151.518 44.856 151.214 44.94 150.953 45.108C150.701 45.276 150.5 45.5186 150.351 45.836C150.211 46.1533 150.141 46.5313 150.141 46.97V51.408H148.965ZM161.319 53.508V43.988H162.411L162.439 45.584L162.271 45.5C162.458 44.9493 162.766 44.534 163.195 44.254C163.634 43.9646 164.138 43.82 164.707 43.82C165.444 43.82 166.046 44.002 166.513 44.366C166.989 44.73 167.339 45.206 167.563 45.794C167.796 46.382 167.913 47.0166 167.913 47.698C167.913 48.3793 167.796 49.014 167.563 49.602C167.339 50.19 166.989 50.666 166.513 51.03C166.046 51.394 165.444 51.576 164.707 51.576C164.324 51.576 163.965 51.5106 163.629 51.38C163.302 51.2493 163.022 51.0673 162.789 50.834C162.565 50.6006 162.411 50.3253 162.327 50.008L162.495 49.812V53.508H161.319ZM164.595 50.456C165.239 50.456 165.748 50.2133 166.121 49.728C166.494 49.2426 166.681 48.566 166.681 47.698C166.681 46.83 166.494 46.1533 166.121 45.668C165.748 45.1826 165.239 44.94 164.595 44.94C164.166 44.94 163.792 45.0426 163.475 45.248C163.167 45.4533 162.924 45.7613 162.747 46.172C162.579 46.5826 162.495 47.0913 162.495 47.698C162.495 48.3046 162.579 48.8133 162.747 49.224C162.915 49.6346 163.158 49.9426 163.475 50.148C163.792 50.3533 164.166 50.456 164.595 50.456ZM171.383 51.408C170.953 51.408 170.603 51.296 170.333 51.072C170.062 50.848 169.927 50.4933 169.927 50.008V41.468H171.103V49.91C171.103 50.0593 171.14 50.176 171.215 50.26C171.299 50.3346 171.415 50.372 171.565 50.372H172.209V51.408H171.383ZM173.9 51.408V43.988H175.076V51.408H173.9ZM173.872 42.826V41.454H175.104V42.826H173.872ZM177.917 51.408V43.316C177.917 42.7653 178.076 42.322 178.393 41.986C178.711 41.6406 179.205 41.468 179.877 41.468H181.053V42.504H179.961C179.672 42.504 179.453 42.5833 179.303 42.742C179.163 42.9006 179.093 43.12 179.093 43.4V51.408H177.917ZM176.909 45.024V43.988H180.955V45.024H176.909ZM182.495 51.408V43.988H183.671V51.408H182.495ZM182.467 42.826V41.454H183.699V42.826H182.467ZM189.023 51.576C188.323 51.576 187.717 51.4173 187.203 51.1C186.699 50.7826 186.307 50.3346 186.027 49.756C185.757 49.168 185.621 48.482 185.621 47.698C185.621 46.914 185.757 46.2326 186.027 45.654C186.307 45.0753 186.695 44.6273 187.189 44.31C187.693 43.9833 188.286 43.82 188.967 43.82C189.611 43.82 190.181 43.974 190.675 44.282C191.17 44.5806 191.553 45.0193 191.823 45.598C192.103 46.1766 192.243 46.8813 192.243 47.712V48.062H186.853C186.9 48.8553 187.11 49.4526 187.483 49.854C187.866 50.2553 188.379 50.456 189.023 50.456C189.509 50.456 189.905 50.344 190.213 50.12C190.531 49.8866 190.75 49.5833 190.871 49.21L192.131 49.308C191.935 49.9706 191.562 50.5166 191.011 50.946C190.47 51.366 189.807 51.576 189.023 51.576ZM186.853 47.026H190.955C190.899 46.3073 190.689 45.78 190.325 45.444C189.971 45.108 189.518 44.94 188.967 44.94C188.398 44.94 187.927 45.1173 187.553 45.472C187.189 45.8173 186.956 46.3353 186.853 47.026ZM196.818 51.576C196.174 51.576 195.614 51.4173 195.138 51.1C194.671 50.7826 194.312 50.3346 194.06 49.756C193.808 49.1773 193.682 48.4913 193.682 47.698C193.682 46.9046 193.808 46.2186 194.06 45.64C194.312 45.0613 194.671 44.6133 195.138 44.296C195.614 43.9786 196.174 43.82 196.818 43.82C197.313 43.82 197.765 43.9273 198.176 44.142C198.587 44.3473 198.895 44.6413 199.1 45.024V41.468H200.276V51.408H199.212L199.17 50.288C198.965 50.6893 198.652 51.0066 198.232 51.24C197.812 51.464 197.341 51.576 196.818 51.576ZM197.056 50.456C197.495 50.456 197.863 50.344 198.162 50.12C198.47 49.896 198.703 49.5786 198.862 49.168C199.021 48.748 199.1 48.258 199.1 47.698C199.1 47.1193 199.021 46.6246 198.862 46.214C198.703 45.8033 198.47 45.4906 198.162 45.276C197.863 45.052 197.495 44.94 197.056 44.94C196.403 44.94 195.88 45.1873 195.488 45.682C195.105 46.1673 194.914 46.8393 194.914 47.698C194.914 48.5473 195.105 49.2193 195.488 49.714C195.88 50.2086 196.403 50.456 197.056 50.456Z" fill="#2E8B6A"/>
</g>
</svg>
