<svg width="48" height="48" viewBox="0 0 48 48" fill="none" xmlns="http://www.w3.org/2000/svg">
<path d="M23.9982 38.997C32.2818 38.997 38.997 32.2818 38.997 23.9981C38.997 15.7145 32.2818 8.99927 23.9982 8.99927C15.7145 8.99927 8.99933 15.7145 8.99933 23.9981C8.99933 32.2818 15.7145 38.997 23.9982 38.997Z" stroke="#2E8B6A" stroke-width="2.99977"/>
<path d="M17.9986 20.2484C19.2412 20.2484 20.2484 19.2412 20.2484 17.9986C20.2484 16.7561 19.2412 15.7488 17.9986 15.7488C16.7561 15.7488 15.7488 16.7561 15.7488 17.9986C15.7488 19.2412 16.7561 20.2484 17.9986 20.2484Z" fill="#2E8B6A"/>
<path d="M29.9977 20.2484C31.2402 20.2484 32.2475 19.2412 32.2475 17.9986C32.2475 16.7561 31.2402 15.7488 29.9977 15.7488C28.7551 15.7488 27.7479 16.7561 27.7479 17.9986C27.7479 19.2412 28.7551 20.2484 29.9977 20.2484Z" fill="#2E8B6A"/>
<path d="M23.9982 26.2479C25.2407 26.2479 26.248 25.2407 26.248 23.9981C26.248 22.7556 25.2407 21.7483 23.9982 21.7483C22.7556 21.7483 21.7484 22.7556 21.7484 23.9981C21.7484 25.2407 22.7556 26.2479 23.9982 26.2479Z" fill="#2E8B6A"/>
<path d="M17.9986 32.2476C19.2412 32.2476 20.2484 31.2403 20.2484 29.9978C20.2484 28.7552 19.2412 27.7479 17.9986 27.7479C16.7561 27.7479 15.7488 28.7552 15.7488 29.9978C15.7488 31.2403 16.7561 32.2476 17.9986 32.2476Z" fill="#2E8B6A"/>
<path d="M29.9977 32.2476C31.2402 32.2476 32.2475 31.2403 32.2475 29.9978C32.2475 28.7552 31.2402 27.7479 29.9977 27.7479C28.7551 27.7479 27.7479 28.7552 27.7479 29.9978C27.7479 31.2403 28.7551 32.2476 29.9977 32.2476Z" fill="#2E8B6A"/>
<path opacity="0.6" d="M17.9986 17.9987L23.9981 23.9982M23.9981 23.9982L29.9977 17.9987M23.9981 23.9982L17.9986 29.9977M23.9981 23.9982L29.9977 29.9977" stroke="#2E8B6A" stroke-width="2.24983" stroke-linecap="round"/>
</svg>
